<svg xmlns="http://www.w3.org/2000/svg" xmlns:xlink="http://www.w3.org/1999/xlink" width="1024" zoomAndPan="magnify" viewBox="0 0 768 767.999994" height="1024" preserveAspectRatio="xMidYMid meet" version="1.0"><path fill="#df0026" d="M 244.351562 614.699219 L 203.101562 614.699219 C 174.148438 614.699219 150.601562 591.148438 150.601562 562.199219 L 150.601562 382.574219 C 150.601562 353.625 174.148438 330.074219 203.101562 330.074219 L 244.351562 330.074219 C 273.300781 330.074219 296.851562 353.625 296.851562 382.574219 L 296.851562 562.199219 C 296.851562 591.148438 273.300781 614.699219 244.351562 614.699219 Z M 203.175781 360.074219 C 190.800781 360.074219 180.675781 370.199219 180.675781 382.574219 L 180.675781 562.199219 C 180.675781 574.574219 190.800781 584.699219 203.175781 584.699219 L 244.425781 584.699219 C 256.800781 584.699219 266.925781 574.574219 266.925781 562.199219 L 266.925781 382.574219 C 266.925781 370.199219 256.800781 360.074219 244.425781 360.074219 Z M 203.175781 360.074219 " fill-opacity="1" fill-rule="nonzero"/><path fill="#e6e6e6" d="M 626.101562 133.273438 L 584.851562 133.273438 C 572.476562 133.273438 562.351562 143.398438 562.351562 155.773438 L 562.351562 562.199219 C 562.351562 574.574219 572.476562 584.699219 584.851562 584.699219 L 626.101562 584.699219 C 638.476562 584.699219 648.601562 574.574219 648.601562 562.199219 L 648.601562 155.773438 C 648.601562 143.398438 638.476562 133.273438 626.101562 133.273438 Z M 435.226562 225.523438 L 393.976562 225.523438 C 381.601562 225.523438 371.476562 235.648438 371.476562 248.023438 L 371.476562 562.199219 C 371.476562 574.574219 381.601562 584.699219 393.976562 584.699219 L 435.226562 584.699219 C 447.601562 584.699219 457.726562 574.574219 457.726562 562.199219 L 457.726562 248.023438 C 457.726562 235.648438 447.601562 225.523438 435.226562 225.523438 Z M 244.351562 359.773438 L 203.101562 359.773438 C 190.726562 359.773438 180.601562 369.898438 180.601562 382.273438 L 180.601562 562.199219 C 180.601562 574.574219 190.726562 584.699219 203.101562 584.699219 L 244.351562 584.699219 C 256.726562 584.699219 266.851562 574.574219 266.851562 562.199219 L 266.851562 382.273438 C 266.851562 369.898438 256.800781 359.773438 244.351562 359.773438 Z M 244.351562 359.773438 " fill-opacity="1" fill-rule="nonzero"/><path fill="#df0026" d="M 626.101562 103.273438 L 584.851562 103.273438 C 555.898438 103.273438 532.351562 126.824219 532.351562 155.773438 L 532.351562 311.699219 C 518.625 305.25 503.550781 301.050781 487.726562 299.699219 L 487.726562 248.101562 C 487.726562 219.148438 464.175781 195.601562 435.226562 195.601562 L 393.976562 195.601562 C 365.023438 195.601562 341.476562 219.148438 341.476562 248.101562 L 341.476562 562.273438 C 341.476562 591.226562 365.023438 614.773438 393.976562 614.773438 L 435.226562 614.773438 C 463.875 614.773438 487.199219 591.75 487.726562 563.25 C 503.550781 561.898438 518.625 557.699219 532.351562 551.25 L 532.351562 562.273438 C 532.351562 591.226562 555.898438 614.773438 584.851562 614.773438 L 626.101562 614.773438 C 655.050781 614.773438 678.601562 591.226562 678.601562 562.273438 L 678.601562 155.773438 C 678.601562 126.824219 654.976562 103.273438 626.101562 103.273438 Z M 562.351562 376.273438 C 572.550781 392.175781 578.476562 411.074219 578.476562 431.398438 C 578.476562 451.648438 572.550781 470.550781 562.351562 486.523438 Z M 373.949219 431.398438 C 373.949219 381.300781 410.101562 339.523438 457.726562 330.824219 L 457.726562 531.976562 C 410.101562 523.273438 373.949219 481.5 373.949219 431.398438 Z M 393.976562 225.523438 L 435.226562 225.523438 C 447.601562 225.523438 457.726562 235.648438 457.726562 248.023438 L 457.726562 300.449219 C 422.773438 305.398438 392.175781 324 371.476562 350.699219 L 371.476562 248.023438 C 371.476562 235.648438 381.601562 225.523438 393.976562 225.523438 Z M 435.226562 584.699219 L 393.976562 584.699219 C 381.601562 584.699219 371.476562 574.574219 371.476562 562.199219 L 371.476562 512.101562 C 392.101562 538.800781 422.699219 557.476562 457.726562 562.351562 C 457.648438 574.726562 447.601562 584.699219 435.226562 584.699219 Z M 487.726562 533.023438 L 487.726562 329.773438 C 504.074219 331.574219 519.226562 337.273438 532.351562 345.976562 L 532.351562 516.898438 C 519.226562 525.523438 504.074219 531.226562 487.726562 533.023438 Z M 562.351562 562.199219 L 562.351562 549.523438 L 597.300781 584.699219 L 584.851562 584.699219 C 572.398438 584.699219 562.351562 574.648438 562.351562 562.199219 Z M 648.601562 562.199219 C 648.601562 570.675781 643.875 578.101562 636.898438 581.925781 L 574.800781 519.523438 C 595.726562 496.125 608.476562 465.226562 608.476562 431.398438 C 608.476562 391.351562 590.550781 355.351562 562.351562 331.125 L 562.351562 155.773438 C 562.351562 143.398438 572.476562 133.273438 584.851562 133.273438 L 626.101562 133.273438 C 638.476562 133.273438 648.601562 143.398438 648.601562 155.773438 Z M 669.148438 660.976562 L 661.648438 660.976562 C 657.523438 660.976562 654.148438 657.601562 654.148438 653.476562 C 654.148438 649.351562 657.523438 645.976562 661.648438 645.976562 L 669.148438 645.976562 C 673.273438 645.976562 676.648438 649.351562 676.648438 653.476562 C 676.648438 657.601562 673.351562 660.976562 669.148438 660.976562 Z M 631.648438 660.976562 L 624.148438 660.976562 C 620.023438 660.976562 616.648438 657.601562 616.648438 653.476562 C 616.648438 649.351562 620.023438 645.976562 624.148438 645.976562 L 631.648438 645.976562 C 635.773438 645.976562 639.148438 649.351562 639.148438 653.476562 C 639.148438 657.601562 635.851562 660.976562 631.648438 660.976562 Z M 594.148438 660.976562 L 586.648438 660.976562 C 582.523438 660.976562 579.148438 657.601562 579.148438 653.476562 C 579.148438 649.351562 582.523438 645.976562 586.648438 645.976562 L 594.148438 645.976562 C 598.273438 645.976562 601.648438 649.351562 601.648438 653.476562 C 601.648438 657.601562 598.351562 660.976562 594.148438 660.976562 Z M 556.648438 660.976562 L 549.148438 660.976562 C 545.023438 660.976562 541.648438 657.601562 541.648438 653.476562 C 541.648438 649.351562 545.023438 645.976562 549.148438 645.976562 L 556.648438 645.976562 C 560.773438 645.976562 564.148438 649.351562 564.148438 653.476562 C 564.148438 657.601562 560.851562 660.976562 556.648438 660.976562 Z M 519.148438 660.976562 L 511.648438 660.976562 C 507.523438 660.976562 504.148438 657.601562 504.148438 653.476562 C 504.148438 649.351562 507.523438 645.976562 511.648438 645.976562 L 519.148438 645.976562 C 523.273438 645.976562 526.648438 649.351562 526.648438 653.476562 C 526.648438 657.601562 523.351562 660.976562 519.148438 660.976562 Z M 481.648438 660.976562 L 474.148438 660.976562 C 470.023438 660.976562 466.648438 657.601562 466.648438 653.476562 C 466.648438 649.351562 470.023438 645.976562 474.148438 645.976562 L 481.648438 645.976562 C 485.773438 645.976562 489.148438 649.351562 489.148438 653.476562 C 489.148438 657.601562 485.851562 660.976562 481.648438 660.976562 Z M 444.148438 660.976562 L 436.648438 660.976562 C 432.523438 660.976562 429.148438 657.601562 429.148438 653.476562 C 429.148438 649.351562 432.523438 645.976562 436.648438 645.976562 L 444.148438 645.976562 C 448.273438 645.976562 451.648438 649.351562 451.648438 653.476562 C 451.648438 657.601562 448.351562 660.976562 444.148438 660.976562 Z M 406.648438 660.976562 L 399.148438 660.976562 C 395.023438 660.976562 391.648438 657.601562 391.648438 653.476562 C 391.648438 649.351562 395.023438 645.976562 399.148438 645.976562 L 406.648438 645.976562 C 410.773438 645.976562 414.148438 649.351562 414.148438 653.476562 C 414.148438 657.601562 410.851562 660.976562 406.648438 660.976562 Z M 369.148438 660.976562 L 361.648438 660.976562 C 357.523438 660.976562 354.148438 657.601562 354.148438 653.476562 C 354.148438 649.351562 357.523438 645.976562 361.648438 645.976562 L 369.148438 645.976562 C 373.273438 645.976562 376.648438 649.351562 376.648438 653.476562 C 376.648438 657.601562 373.351562 660.976562 369.148438 660.976562 Z M 331.648438 660.976562 L 324.148438 660.976562 C 320.023438 660.976562 316.648438 657.601562 316.648438 653.476562 C 316.648438 649.351562 320.023438 645.976562 324.148438 645.976562 L 331.648438 645.976562 C 335.773438 645.976562 339.148438 649.351562 339.148438 653.476562 C 339.148438 657.601562 335.851562 660.976562 331.648438 660.976562 Z M 294.148438 660.976562 L 286.648438 660.976562 C 282.523438 660.976562 279.148438 657.601562 279.148438 653.476562 C 279.148438 649.351562 282.523438 645.976562 286.648438 645.976562 L 294.148438 645.976562 C 298.273438 645.976562 301.648438 649.351562 301.648438 653.476562 C 301.648438 657.601562 298.351562 660.976562 294.148438 660.976562 Z M 256.648438 660.976562 L 249.148438 660.976562 C 245.023438 660.976562 241.648438 657.601562 241.648438 653.476562 C 241.648438 649.351562 245.023438 645.976562 249.148438 645.976562 L 256.648438 645.976562 C 260.773438 645.976562 264.148438 649.351562 264.148438 653.476562 C 264.148438 657.601562 260.851562 660.976562 256.648438 660.976562 Z M 219.148438 660.976562 L 211.648438 660.976562 C 207.523438 660.976562 204.148438 657.601562 204.148438 653.476562 C 204.148438 649.351562 207.523438 645.976562 211.648438 645.976562 L 219.148438 645.976562 C 223.273438 645.976562 226.648438 649.351562 226.648438 653.476562 C 226.648438 657.601562 223.351562 660.976562 219.148438 660.976562 Z M 181.648438 660.976562 L 174.148438 660.976562 C 170.023438 660.976562 166.648438 657.601562 166.648438 653.476562 C 166.648438 649.351562 170.023438 645.976562 174.148438 645.976562 L 181.648438 645.976562 C 185.773438 645.976562 189.148438 649.351562 189.148438 653.476562 C 189.148438 657.601562 185.851562 660.976562 181.648438 660.976562 Z M 144.148438 660.976562 L 136.648438 660.976562 C 132.523438 660.976562 129.148438 657.601562 129.148438 653.476562 C 129.148438 649.351562 132.523438 645.976562 136.648438 645.976562 L 144.148438 645.976562 C 148.273438 645.976562 151.648438 649.351562 151.648438 653.476562 C 151.648438 657.601562 148.351562 660.976562 144.148438 660.976562 Z M 106.648438 660.976562 L 99.148438 660.976562 C 95.023438 660.976562 91.648438 657.601562 91.648438 653.476562 C 91.648438 649.351562 95.023438 645.976562 99.148438 645.976562 L 106.648438 645.976562 C 110.773438 645.976562 114.148438 649.351562 114.148438 653.476562 C 114.148438 657.601562 110.851562 660.976562 106.648438 660.976562 Z M 95.851562 634.273438 C 91.726562 634.273438 88.351562 630.898438 88.351562 626.773438 L 88.351562 619.273438 C 88.351562 615.148438 91.726562 611.773438 95.851562 611.773438 C 99.976562 611.773438 103.351562 615.148438 103.351562 619.273438 L 103.351562 626.773438 C 103.351562 630.898438 99.976562 634.273438 95.851562 634.273438 Z M 95.851562 596.773438 C 91.726562 596.773438 88.351562 593.398438 88.351562 589.273438 L 88.351562 581.773438 C 88.351562 577.648438 91.726562 574.273438 95.851562 574.273438 C 99.976562 574.273438 103.351562 577.648438 103.351562 581.773438 L 103.351562 589.273438 C 103.351562 593.398438 99.976562 596.773438 95.851562 596.773438 Z M 95.851562 559.273438 C 91.726562 559.273438 88.351562 555.898438 88.351562 551.773438 L 88.351562 544.273438 C 88.351562 540.148438 91.726562 536.773438 95.851562 536.773438 C 99.976562 536.773438 103.351562 540.148438 103.351562 544.273438 L 103.351562 551.773438 C 103.351562 555.898438 99.976562 559.273438 95.851562 559.273438 Z M 95.851562 521.773438 C 91.726562 521.773438 88.351562 518.398438 88.351562 514.273438 L 88.351562 506.773438 C 88.351562 502.648438 91.726562 499.273438 95.851562 499.273438 C 99.976562 499.273438 103.351562 502.648438 103.351562 506.773438 L 103.351562 514.273438 C 103.351562 518.398438 99.976562 521.773438 95.851562 521.773438 Z M 95.851562 484.273438 C 91.726562 484.273438 88.351562 480.898438 88.351562 476.773438 L 88.351562 469.273438 C 88.351562 465.148438 91.726562 461.773438 95.851562 461.773438 C 99.976562 461.773438 103.351562 465.148438 103.351562 469.273438 L 103.351562 476.773438 C 103.351562 480.898438 99.976562 484.273438 95.851562 484.273438 Z M 95.851562 446.773438 C 91.726562 446.773438 88.351562 443.398438 88.351562 439.273438 L 88.351562 431.773438 C 88.351562 427.648438 91.726562 424.273438 95.851562 424.273438 C 99.976562 424.273438 103.351562 427.648438 103.351562 431.773438 L 103.351562 439.273438 C 103.351562 443.398438 99.976562 446.773438 95.851562 446.773438 Z M 95.851562 409.273438 C 91.726562 409.273438 88.351562 405.898438 88.351562 401.773438 L 88.351562 394.273438 C 88.351562 390.148438 91.726562 386.773438 95.851562 386.773438 C 99.976562 386.773438 103.351562 390.148438 103.351562 394.273438 L 103.351562 401.773438 C 103.351562 405.898438 99.976562 409.273438 95.851562 409.273438 Z M 95.851562 371.773438 C 91.726562 371.773438 88.351562 368.398438 88.351562 364.273438 L 88.351562 356.773438 C 88.351562 352.648438 91.726562 349.273438 95.851562 349.273438 C 99.976562 349.273438 103.351562 352.648438 103.351562 356.773438 L 103.351562 364.273438 C 103.351562 368.398438 99.976562 371.773438 95.851562 371.773438 Z M 95.851562 334.273438 C 91.726562 334.273438 88.351562 330.898438 88.351562 326.773438 L 88.351562 319.273438 C 88.351562 315.148438 91.726562 311.773438 95.851562 311.773438 C 99.976562 311.773438 103.351562 315.148438 103.351562 319.273438 L 103.351562 326.773438 C 103.351562 330.898438 99.976562 334.273438 95.851562 334.273438 Z M 95.851562 296.773438 C 91.726562 296.773438 88.351562 293.398438 88.351562 289.273438 L 88.351562 281.773438 C 88.351562 277.648438 91.726562 274.273438 95.851562 274.273438 C 99.976562 274.273438 103.351562 277.648438 103.351562 281.773438 L 103.351562 289.273438 C 103.351562 293.398438 99.976562 296.773438 95.851562 296.773438 Z M 95.851562 259.273438 C 91.726562 259.273438 88.351562 255.898438 88.351562 251.773438 L 88.351562 244.273438 C 88.351562 240.148438 91.726562 236.773438 95.851562 236.773438 C 99.976562 236.773438 103.351562 240.148438 103.351562 244.273438 L 103.351562 251.773438 C 103.351562 255.898438 99.976562 259.273438 95.851562 259.273438 Z M 95.851562 221.773438 C 91.726562 221.773438 88.351562 218.398438 88.351562 214.273438 L 88.351562 206.773438 C 88.351562 202.648438 91.726562 199.273438 95.851562 199.273438 C 99.976562 199.273438 103.351562 202.648438 103.351562 206.773438 L 103.351562 214.273438 C 103.351562 218.398438 99.976562 221.773438 95.851562 221.773438 Z M 95.851562 184.273438 C 91.726562 184.273438 88.351562 180.898438 88.351562 176.773438 L 88.351562 169.273438 C 88.351562 165.148438 91.726562 161.773438 95.851562 161.773438 C 99.976562 161.773438 103.351562 165.148438 103.351562 169.273438 L 103.351562 176.773438 C 103.351562 180.898438 99.976562 184.273438 95.851562 184.273438 Z M 95.851562 184.273438 " fill-opacity="1" fill-rule="nonzero"/><path fill="#ffffff" d="M 476.25 329.175781 C 419.851562 329.175781 373.949219 375.074219 373.949219 431.476562 C 373.949219 487.875 419.851562 533.699219 476.25 533.699219 C 532.648438 533.699219 578.550781 487.800781 578.550781 431.398438 C 578.550781 375 532.648438 329.175781 476.25 329.175781 Z M 476.25 329.175781 " fill-opacity="1" fill-rule="nonzero"/><path fill="#ff914d" d="M 476.25 346.273438 C 465.75 346.273438 455.398438 348.148438 445.648438 351.898438 C 441.75 353.398438 439.875 357.75 441.375 361.574219 C 442.875 365.476562 447.226562 367.351562 451.050781 365.851562 C 459.074219 362.773438 467.550781 361.199219 476.25 361.199219 C 514.949219 361.199219 546.375 392.699219 546.375 431.324219 C 546.375 446.101562 541.800781 460.199219 533.25 472.199219 C 529.949219 476.851562 526.050781 481.050781 521.625 484.800781 C 518.476562 487.5 518.101562 492.226562 520.800781 495.375 C 522.300781 497.101562 524.398438 498 526.5 498 C 528.226562 498 529.949219 497.398438 531.375 496.199219 C 536.625 491.699219 541.425781 486.601562 545.476562 480.898438 C 555.898438 466.351562 561.449219 449.25 561.449219 431.25 C 561.375 384.449219 523.199219 346.273438 476.25 346.273438 Z M 476.25 346.273438 " fill-opacity="1" fill-rule="nonzero"/></svg>